<?xml version="1.0" encoding="UTF-8"?>
<svg xmlns="http://www.w3.org/2000/svg" width="32" height="32" viewBox="0 0 32 32" fill="none">
  <g clip-path="url(#clip0_823_324)">
    <path fill-rule="evenodd" clip-rule="evenodd" d="M4.99544 12.6698C5.36684 12.5488 5.75509 12.4875 6.14571 12.4882C7.90138 12.4882 9.3669 13.7094 9.70246 15.3336L12.1902 14.8363C11.6194 12.0761 9.13079 10 6.14614 10C5.46203 10 4.8056 10.109 4.19025 10.3105L4.99544 12.6698Z" fill="#8FD7C4"></path>
    <path fill-rule="evenodd" clip-rule="evenodd" d="M2.10681 20.6668L3.80973 18.7844C3.04951 18.1258 2.56995 17.1649 2.56995 16.0947C2.56995 15.0244 3.04865 14.064 3.80843 13.4062L2.10595 11.5239C0.814703 12.6421 0 14.2754 0 16.0947C0 17.9144 0.814703 19.5481 2.10681 20.6668Z" fill="#8FD7C4"></path>
    <path fill-rule="evenodd" clip-rule="evenodd" d="M9.7029 16.8571C9.36603 18.4808 7.90225 19.7012 6.1483 19.7012C5.75701 19.702 5.3681 19.6402 4.9963 19.5182L4.19025 21.8802C4.80517 22.0817 5.46333 22.1902 6.14787 22.1902C9.12906 22.1902 11.6173 20.1159 12.1902 17.3574L9.7029 16.8571Z" fill="#8FD7C4"></path>
    <path fill-rule="evenodd" clip-rule="evenodd" d="M19.2329 18.0973L19.2311 18.099L19.1607 18.0514C18.9574 18.3818 18.6417 18.6499 18.2417 18.8238C17.4819 19.1554 16.7779 19.0702 16.2724 18.6248L16.2262 18.6958C16.2253 18.6949 16.2253 18.6945 16.2244 18.6945L15.3622 19.99C15.5766 20.1397 15.8064 20.2661 16.0476 20.3671C17.0002 20.7649 17.9745 20.7464 18.9345 20.3269C19.6294 20.0246 20.1738 19.5636 20.5466 18.9794L19.2329 18.0973ZM16.541 14.9003C15.7388 15.2462 15.325 16.0026 15.4102 16.8891L18.8091 15.4196C18.2244 14.7295 17.4642 14.5012 16.541 14.9003ZM14.2845 18.8475C14.1882 18.687 14.1021 18.5204 14.0268 18.3489C13.6346 17.4344 13.616 16.4882 13.9468 15.5796C14.3109 14.5833 15.0063 13.8205 15.9053 13.4322C17.0352 12.9435 18.2845 13.04 19.3674 13.6856C20.0554 14.0817 20.5431 14.694 20.9133 15.5593C20.9609 15.67 21.0019 15.7885 21.0426 15.8893L14.2845 18.8475ZM23.4045 11.5239V18.7278L24.5198 19.1818L23.8863 20.6668L22.6556 20.1522C22.3792 20.0315 22.1911 19.8478 22.0489 19.6402C21.9127 19.4283 21.811 19.1386 21.811 18.7472V11.5239H23.4045ZM26.2932 16.8925C26.2926 17.183 26.354 17.4703 26.4734 17.7352C26.5927 18.0001 26.7671 18.2364 26.9851 18.4285L25.8426 19.7111C25.4446 19.3572 25.1262 18.9227 24.9087 18.4365C24.6912 17.9503 24.5794 17.4234 24.5808 16.8908C24.5803 16.3584 24.6929 15.832 24.9111 15.3464C25.1293 14.8608 25.4481 14.4271 25.8465 14.0739L26.9903 15.3552C26.7712 15.5469 26.5956 15.7833 26.4754 16.0484C26.3551 16.3136 26.293 16.6014 26.2932 16.8925ZM28.3256 18.9371C29.3081 18.9379 30.128 18.2387 30.3191 17.3085L31.9983 17.6527C31.648 19.3691 30.1354 20.6599 28.3239 20.6581C27.9195 20.658 27.5179 20.5921 27.1347 20.4631L27.6813 18.8315C27.8837 18.899 28.1008 18.9366 28.3256 18.9371ZM28.3308 13.1304C30.1436 13.1316 31.6545 14.4276 32 16.1461L30.3204 16.4878C30.2283 16.0271 29.9797 15.6124 29.6168 15.3141C29.2538 15.0158 28.7989 14.8522 28.3291 14.851C28.1099 14.851 27.8922 14.8864 27.6843 14.9556L27.1429 13.3224C27.5259 13.1944 27.9271 13.1296 28.3308 13.1304Z" fill="#8FD7C4"></path>
  </g>
  <defs>
    <clipPath id="clip0_823_324">
      <rect width="32" height="12.5405" fill="white" transform="translate(0 10)"></rect>
    </clipPath>
  </defs>
</svg>
