<?xml version="1.0" encoding="UTF-8"?>
<svg xmlns="http://www.w3.org/2000/svg" width="32" height="32" viewBox="0 0 32 32" fill="none">
  <mask id="mask0_824_464" style="mask-type:alpha" maskUnits="userSpaceOnUse" x="4" y="4" width="24" height="24">
    <path d="M23.72 9.88802L24.488 7.80001H28V4H4V28H28V24.208H24.688L23.464 22.776L22.192 24.208H12.784V16.584H9.67998L13.56 7.80001H17.336L18.248 9.79201V7.80001H22.936L23.72 9.88802ZM21.072 11.272L21.064 10.432L21.384 11.272L22.944 15.44H24.496L26.064 11.272L26.368 10.44V15.44H28V9.04H25.288L24.056 12.288L23.728 13.168L23.392 12.288L22.152 9.04H19.44V15.44H21.072V11.272ZM17.56 15.44H19.44L16.624 9.04H14.44L11.608 15.44H13.464L13.96 14.208H17.064L17.56 15.44ZM15.192 11.208L15.512 10.408L15.832 11.208L16.496 12.824H14.528L15.192 11.208ZM14.096 16.592V22.968H19.44V21.584H15.728V20.472H19.368V19.096H15.728V17.976H19.44V16.592H14.096ZM25.384 22.968H27.504L24.512 19.768L27.504 16.592H25.416L23.488 18.664L21.568 16.592H19.44L22.424 19.792L19.44 22.968H21.504L23.448 20.888L25.384 22.968ZM26.192 19.76L28 21.6V17.944L26.192 19.76Z" fill="#006FCF"></path>
  </mask>
  <g mask="url(#mask0_824_464)">
    <path d="M4 4V15.9625V28H15.9997H28V16.0003V4H16.0043H4Z" fill="#8FD7C4"></path>
  </g>
</svg>
