<?xml version="1.0" encoding="UTF-8"?>
<svg xmlns="http://www.w3.org/2000/svg" width="32" height="32" viewBox="0 0 32 32" fill="none">
  <path fill-rule="evenodd" clip-rule="evenodd" d="M9.57209 9.62689C10.5137 9.62689 11.3993 9.99352 12.0652 10.6591L15.678 14.2726C15.9382 14.5329 16.3631 14.5338 16.6239 14.2723L20.2236 10.6722C20.8895 10.0067 21.7751 9.64007 22.7167 9.64007H23.1503L18.5782 5.06793C17.1542 3.64402 14.8457 3.64402 13.4219 5.06793L8.8629 9.62691L9.57209 9.62689ZM22.7167 22.3598C21.7752 22.3598 20.8895 21.9932 20.2237 21.3277L16.624 17.7279C16.3712 17.4745 15.9307 17.4752 15.6781 17.7279L12.0652 21.3408C11.3993 22.0064 10.5137 22.373 9.57214 22.373H8.86274L13.4219 26.9321C14.8457 28.3559 17.1543 28.3559 18.5782 26.9321L23.1503 22.3598H22.7167ZM24.1692 10.6588L26.9321 13.4218C28.3559 14.8457 28.3559 17.1541 26.9321 18.578L24.1692 21.341C24.1084 21.3166 24.0425 21.3014 23.9729 21.3014H22.7167C22.0672 21.3014 21.4315 21.038 20.9725 20.5787L17.3729 16.9793C16.7206 16.3263 15.5822 16.3265 14.9292 16.979L11.3163 20.5919C10.8574 21.0512 10.2216 21.3145 9.57212 21.3145H8.02745C7.96156 21.3145 7.89999 21.33 7.84176 21.3519L5.06793 18.5781C3.64402 17.1541 3.64402 14.8457 5.06793 13.4218L7.84187 10.6478C7.9 10.6697 7.96156 10.6853 8.02745 10.6853H9.57212C10.2216 10.6853 10.8574 10.9486 11.3163 11.4079L14.9295 15.0211C15.2663 15.3577 15.7086 15.5262 16.1512 15.5262C16.5934 15.5262 17.0361 15.3577 17.3729 15.0208L20.9725 11.4211C21.4315 10.9618 22.0672 10.6984 22.7167 10.6984H23.9729C24.0425 10.6984 24.1084 10.6832 24.1692 10.6588Z" fill="#8FD7C4"></path>
</svg>
