<?xml version="1.0" encoding="UTF-8"?>
<svg xmlns="http://www.w3.org/2000/svg" width="32" height="32" viewBox="0 0 32 32" fill="none">
  <path fill-rule="evenodd" clip-rule="evenodd" d="M21.7916 11.0497C21.6957 11.0334 21.5999 11.0172 21.5041 11L20.2956 11.0005C20.2467 11.0151 20.1969 11.0267 20.1465 11.0352C19.2431 11.1059 18.3806 11.4296 17.6644 11.9666C17.2643 12.2584 16.951 12.6472 16.7561 13.0936C16.5612 13.5401 16.4916 14.0284 16.5544 14.5091C16.5976 14.8352 16.7137 15.1482 16.8947 15.4264C17.0757 15.7046 17.3171 15.9414 17.6023 16.1202C17.8863 16.3176 18.1924 16.4848 18.4988 16.6521L18.4989 16.6521C18.6668 16.7438 18.8348 16.8356 18.9992 16.9323C19.3049 17.0938 19.5964 17.2792 19.8708 17.4866C19.9625 17.5568 20.0351 17.6474 20.0825 17.7508C20.1298 17.8542 20.1503 17.9672 20.1423 18.08C20.1344 18.1928 20.0981 18.302 20.0366 18.3982C19.9752 18.4944 19.8904 18.5747 19.7897 18.6321C19.5842 18.7662 19.3533 18.8596 19.1102 18.9067C18.2166 19.051 17.299 18.9403 16.4694 18.5884C16.3495 18.5421 16.2312 18.4911 16.1098 18.4387L16.1098 18.4387L16.1096 18.4386C16.0511 18.4133 15.9918 18.3878 15.9313 18.3623C15.772 19.0799 15.6174 19.7779 15.4636 20.4746C15.4866 20.4907 15.511 20.505 15.5363 20.5173L15.5601 20.5268L15.5601 20.5268C15.6231 20.5519 15.6863 20.577 15.7509 20.598C16.8283 20.9432 17.9681 21.0681 19.098 20.9648C19.912 20.915 20.7001 20.6687 21.3903 20.2485C21.9087 19.9484 22.3216 19.5044 22.5753 18.9742C22.8291 18.4441 22.9119 17.8524 22.813 17.2761C22.7617 16.9391 22.6331 16.6175 22.4366 16.3349C22.2401 16.0523 21.9806 15.8158 21.6772 15.6428C21.368 15.4451 21.0434 15.2695 20.7185 15.0938L20.7185 15.0938C20.5059 14.9788 20.2932 14.8637 20.0846 14.7423C19.8486 14.6124 19.6276 14.4585 19.4254 14.2833C19.3585 14.2312 19.3048 14.1651 19.2685 14.0898C19.2322 14.0146 19.2142 13.9323 19.2158 13.8493C19.2175 13.7663 19.2388 13.6848 19.2782 13.611C19.3175 13.5372 19.3738 13.4731 19.4428 13.4237C19.6228 13.2773 19.8327 13.1694 20.0589 13.1071C20.5974 12.981 21.1598 12.9857 21.6959 13.1209C21.9698 13.1792 22.2388 13.2602 22.5122 13.3424L22.5122 13.3424L22.5122 13.3424C22.6335 13.3789 22.7557 13.4157 22.8795 13.4508L23.3306 11.4118C23.2358 11.3857 23.1433 11.359 23.0523 11.3328L23.0522 11.3328C22.8501 11.2745 22.6549 11.2183 22.4567 11.1741C22.2369 11.1253 22.0143 11.0875 21.7916 11.0497ZM29.5902 20.8383H31.999L32 20.7692C31.9792 20.6836 31.9581 20.5981 31.9371 20.5126L31.9371 20.5125L31.937 20.5124C31.8777 20.2718 31.8185 20.0313 31.7661 19.7893C31.2139 17.2296 30.6615 14.67 30.1091 12.1107C30.0641 11.9047 30.0181 11.6978 29.9718 11.4896L29.9012 11.1722H27.7861C27.5173 11.1492 27.2485 11.2156 27.024 11.3603C26.7995 11.505 26.6328 11.7195 26.5513 11.9682C25.4283 14.558 24.3054 17.1479 23.1827 19.7378C23.0684 20.0007 22.9557 20.2643 22.8401 20.5345L22.708 20.8433L23.1351 20.8434H23.1352H23.1352C23.8819 20.8436 24.6132 20.8439 25.3451 20.8375C25.3911 20.8375 25.4579 20.7654 25.4782 20.7152C25.6268 20.3358 25.7723 19.9543 25.9054 19.5692C25.9149 19.5142 25.9464 19.4651 25.9931 19.4325C26.0398 19.3999 26.0979 19.3865 26.1548 19.395C27.1204 19.4026 28.0868 19.4053 29.0526 19.3933C29.2459 19.391 29.3015 19.4561 29.3324 19.6234C29.3872 19.9154 29.4512 20.2053 29.5157 20.498L29.5157 20.4981L29.5157 20.4981L29.5159 20.4987L29.516 20.4995C29.5408 20.6119 29.5657 20.7248 29.5902 20.8383ZM28.3298 15.0095C28.501 15.8035 28.6728 16.5998 28.8463 17.4033H26.7228L28.0519 13.8587L28.0829 13.8645L28.3298 15.0095ZM12.1365 11.1802C12.0885 11.2918 12.0415 11.4016 11.995 11.5102L11.9948 11.5108C11.9102 11.7083 11.8273 11.9019 11.7434 12.095C10.5037 14.9549 9.26516 17.8151 8.02761 20.6757C8.01147 20.7316 7.97468 20.7799 7.92421 20.8114C7.87374 20.8429 7.81309 20.8554 7.75373 20.8465C6.97108 20.8408 6.18844 20.838 5.40657 20.8483C5.24079 20.8506 5.18648 20.7948 5.14828 20.6505C4.90258 19.7248 4.65541 18.7995 4.40824 17.874C3.98806 16.3009 3.56786 14.7276 3.15476 13.1526C3.11202 12.9395 3.01541 12.7399 2.87355 12.5716C2.73169 12.4034 2.54898 12.2717 2.34171 12.1883C1.61787 11.8891 0.867379 11.6543 0.099519 11.4867C0.074695 11.4812 0.0498716 11.4752 0.0260557 11.4694L0.0260499 11.4694L0 11.4631C0.00363781 11.1729 0.00363953 11.1729 0.289208 11.1729H4.39733C4.6942 11.1581 4.98607 11.2511 5.21564 11.4337C5.44521 11.6163 5.59589 11.8753 5.63809 12.1599C5.87702 13.3686 6.1124 14.5789 6.34776 15.7891L6.34793 15.79C6.45498 16.3405 6.56203 16.8909 6.66941 17.4412C6.6787 17.4897 6.68901 17.5377 6.70098 17.5935L6.70098 17.5935C6.7081 17.6267 6.71581 17.6626 6.72423 17.703C6.75228 17.6576 6.77777 17.6108 6.80063 17.5628C7.65118 15.4828 8.5 13.4023 9.34709 11.3211C9.35944 11.2731 9.38971 11.2311 9.43211 11.2033C9.4745 11.1754 9.52603 11.1637 9.5768 11.1704C10.1855 11.1752 10.7941 11.1747 11.4024 11.1742C11.5883 11.1741 11.7741 11.1739 11.9598 11.1739C11.9952 11.173 12.0307 11.1749 12.0733 11.1771C12.0927 11.1781 12.1136 11.1792 12.1365 11.1802ZM13.0246 12.1464C12.3837 15.0421 11.7435 17.9342 11.0997 20.8442H11.3128C11.5075 20.8442 11.7022 20.8436 11.8968 20.843C12.4136 20.8414 12.9302 20.8398 13.4467 20.8495C13.6454 20.8535 13.7127 20.7947 13.7533 20.6101C14.3384 17.9514 14.9248 15.293 15.5124 12.635C15.5849 12.3064 15.6573 11.9774 15.7303 11.6456C15.7641 11.4923 15.7979 11.3384 15.832 11.1837H13.2377L13.0246 12.1464Z" fill="#8FD7C4"></path>
</svg>
