<?xml version="1.0" encoding="UTF-8"?>
<svg xmlns="http://www.w3.org/2000/svg" width="32" height="32" viewBox="0 0 32 32" fill="none">
  <path d="M16 8.14183C15.8726 8.24317 15.7479 8.34755 15.6259 8.45497C13.542 10.2884 12.2231 12.9875 12.2231 15.9999C12.2231 19.0124 13.542 21.7115 15.6259 23.5449C15.7479 23.6524 15.8726 23.7567 16 23.8582C16.1275 23.7567 16.2521 23.6524 16.3743 23.5449C18.458 21.7115 19.777 19.0124 19.777 15.9999C19.777 12.9875 18.458 10.2884 16.3743 8.45497C16.2521 8.34755 16.1275 8.24317 16 8.14183ZM22.1114 6C20.0869 6 18.2048 6.61555 16.6373 7.67133C16.7174 7.73786 16.7986 7.80317 16.8762 7.87142C19.206 9.92111 20.5419 12.8838 20.5419 15.9999C20.5419 19.1161 19.206 22.0788 16.8765 24.1285C16.7991 24.1964 16.7175 24.2622 16.6373 24.3287C18.2046 25.3842 20.0869 25.9999 22.1114 25.9999C27.5726 25.9999 32 21.5228 32 16C32 10.4771 27.5726 6 22.1114 6ZM15.1238 24.1285C15.201 24.1964 15.2826 24.2621 15.3629 24.3287C13.7953 25.3843 11.9131 26 9.88861 26C4.42713 26 0 21.5228 0 16C0 10.4772 4.42713 6 9.88861 6C11.9131 6 13.7952 6.61555 15.3628 7.67122C15.2826 7.73775 15.2014 7.80305 15.1238 7.8713C12.7942 9.92111 11.4581 12.8838 11.4581 15.9999C11.4581 19.1163 12.7942 22.079 15.1238 24.1285Z" fill="#8FD7C4"></path>
</svg>
