<?xml version="1.0" encoding="UTF-8"?>
<svg xmlns="http://www.w3.org/2000/svg" width="8" height="8" viewBox="0 0 8 8" fill="none">
  <path d="M4 1.60024C5.32548 1.60024 6.4 2.67476 6.4 4.00024V7.20024C6.4 7.64207 6.75817 8.00024 7.2 8.00024C7.64183 8.00024 8 7.64207 8 7.20024V4.00024C8 1.79111 6.20914 0.000244141 4 0.000244141C1.79086 0.000244141 0 1.79111 0 4.00024V7.20024C0 7.64207 0.358167 8.00024 0.8 8.00024C1.24183 8.00024 1.6 7.64207 1.6 7.20024V4.00024C1.6 2.67476 2.67452 1.60024 4 1.60024Z" fill="#FABB18"></path>
  <path d="M3.3 5.60024C3.74183 5.60024 4.1 5.24207 4.1 4.80024C4.1 4.35842 3.74183 4.00024 3.3 4.00024C2.85817 4.00024 2.5 4.35842 2.5 4.80024C2.5 5.24207 2.85817 5.60024 3.3 5.60024Z" fill="#FABB18"></path>
</svg>
