<?xml version="1.0" encoding="UTF-8"?>
<svg xmlns="http://www.w3.org/2000/svg" width="124" height="40" viewBox="0 0 124 40" fill="none">
  <path d="M35.9999 40.0002C33.7908 40.0002 32 38.2093 32 36.0002V20.0002C32 13.3728 26.6274 8.00024 20 8.00024C13.3726 8.00024 7.99999 13.3728 7.99999 20.0002V36.0002C7.99999 38.2093 6.20916 40.0002 3.99999 40.0002C1.79083 40.0002 0 38.2093 0 36.0002V20.0002C0 8.95455 8.95427 0.000244141 20 0.000244141C29.1934 0.000244141 36.938 6.20326 39.2769 14.6523C37.3319 15.6446 35.9999 17.6669 35.9999 20.0002C35.9999 22.6127 37.6696 24.8351 39.9999 25.6588V36.0002C39.9999 38.2093 38.2091 40.0002 35.9999 40.0002Z" fill="#FABB18"></path>
  <path d="M14 28.0002C16.2091 28.0002 18 26.2094 18 24.0002C18 21.7911 16.2091 20.0002 14 20.0002C11.7908 20.0002 9.99998 21.7911 9.99998 24.0002C9.99998 26.2094 11.7908 28.0002 14 28.0002Z" fill="#FABB18"></path>
  <path d="M61.9999 8.00024C68.6273 8.00024 73.9999 13.3728 73.9999 20.0002V36.0002C73.9999 38.2093 75.7907 40.0002 77.9999 40.0002C80.209 40.0002 81.9999 38.2093 81.9999 36.0002V20.0002C81.9999 13.3728 87.3725 8.00024 93.9999 8.00024C100.627 8.00024 106 13.3728 106 20.0002V36.0002C106 38.2093 107.791 40.0002 110 40.0002C112.209 40.0002 114 38.2093 114 36.0002V24.0002C116.209 24.0002 118 22.2094 118 20.0002C118 17.7911 116.209 16.0002 114 16.0002C113.866 16.0002 113.734 16.0068 113.604 16.0196C111.758 6.881 103.683 0.000244141 93.9999 0.000244141C87.4575 0.000244141 81.6488 3.14162 77.9999 7.99829C74.351 3.14162 68.5423 0.000244141 61.9999 0.000244141C52.3172 0.000244141 44.2417 6.881 42.3961 16.0196C42.2658 16.0068 42.1336 16.0002 41.9999 16.0002C39.7908 16.0002 37.9999 17.7911 37.9999 20.0002C37.9999 22.2094 39.7908 24.0002 41.9999 24.0002V36.0002C41.9999 38.2093 43.7908 40.0002 45.9999 40.0002C48.2091 40.0002 49.9999 38.2093 49.9999 36.0002V20.0002C49.9999 13.3728 55.3725 8.00024 61.9999 8.00024Z" fill="#FABB18"></path>
  <path d="M120 8.00024C122.209 8.00024 124 6.20938 124 4.00024C124 1.7911 122.209 0.000244141 120 0.000244141C117.791 0.000244141 116 1.7911 116 4.00024C116 6.20938 117.791 8.00024 120 8.00024Z" fill="#FABB18"></path>
  <path d="M116 14.0002V14.3416C118.33 15.1653 120 17.3878 120 20.0002C120 22.6127 118.33 24.8351 116 25.6588V36.0002C116 38.2094 117.791 40.0002 120 40.0002C122.209 40.0002 124 38.2094 124 36.0002V14.0002C124 11.7911 122.209 10.0002 120 10.0002C117.791 10.0002 116 11.7911 116 14.0002Z" fill="#FABB18"></path>
</svg>
